<svg width="30" height="30" viewBox="0 0 30 30" fill="none" xmlns="http://www.w3.org/2000/svg">
    <path
        d="M13 2C13 0.89543 13.8954 0 15 0C16.1046 0 17 0.895431 17 2V8C17 9.10457 16.1046 10 15 10C13.8954 10 13 9.10457 13 8V2Z"
        fill="#8E8E93" />
    <path opacity="0.87"
        d="M4.39438 7.22183C3.61333 6.44078 3.61333 5.17445 4.39438 4.3934C5.17543 3.61236 6.44176 3.61236 7.22281 4.3934L11.4654 8.63604C12.2465 9.41709 12.2465 10.6834 11.4654 11.4645C10.6844 12.2455 9.41807 12.2455 8.63702 11.4645L4.39438 7.22183Z"
        fill="#8E8E93" />
    <path opacity="0.75"
        d="M2 17C0.89543 17 0 16.1046 0 15C0 13.8954 0.895431 13 2 13H8C9.10457 13 10 13.8954 10 15C10 16.1046 9.10457 17 8 17H2Z"
        fill="#8E8E93" />
    <path opacity="0.63"
        d="M7.22281 25.6066C6.44176 26.3876 5.17543 26.3876 4.39438 25.6066C3.61333 24.8255 3.61333 23.5592 4.39438 22.7781L8.63702 18.5355C9.41807 17.7544 10.6844 17.7544 11.4654 18.5355C12.2465 19.3165 12.2465 20.5829 11.4654 21.3639L7.22281 25.6066Z"
        fill="#8E8E93" />
    <path opacity="0.51"
        d="M17 28C17 29.1046 16.1046 30 15 30C13.8954 30 13 29.1046 13 28V22C13 20.8954 13.8954 20 15 20C16.1046 20 17 20.8954 17 22V28Z"
        fill="#8E8E93" />
    <path opacity="0.39"
        d="M25.6061 22.7781C26.3871 23.5592 26.3871 24.8255 25.6061 25.6066C24.825 26.3876 23.5587 26.3876 22.7776 25.6066L18.535 21.3639C17.754 20.5829 17.754 19.3165 18.535 18.5355C19.3161 17.7544 20.5824 17.7544 21.3634 18.5355L25.6061 22.7781Z"
        fill="#8E8E93" />
    <path opacity="0.27"
        d="M28 13C29.1046 13 30 13.8954 30 15C30 16.1046 29.1046 17 28 17H22C20.8954 17 20 16.1046 20 15C20 13.8954 20.8954 13 22 13H28Z"
        fill="#8E8E93" />
    <path opacity="0.15"
        d="M22.7776 4.3934C23.5587 3.61235 24.825 3.61236 25.6061 4.3934C26.3871 5.17445 26.3871 6.44078 25.6061 7.22183L21.3634 11.4645C20.5824 12.2455 19.3161 12.2455 18.535 11.4645C17.754 10.6834 17.754 9.41709 18.535 8.63604L22.7776 4.3934Z"
        fill="#8E8E93" />
</svg>